<svg id="ec7V0zWoPpE1" xmlns="http://www.w3.org/2000/svg" xmlns:xlink="http://www.w3.org/1999/xlink" viewBox="0 0 300 300" shape-rendering="geometricPrecision" text-rendering="geometricPrecision"><g><path d="M150,32c60.75132,0,110,49.24868,110,110s-49.24868,110-110,110v-184.87502h-28.86015C121.13985,47.72599,134.06098,32,150,32Z" transform="matrix(0-1-1 0 300 300)" fill="#fff" stroke-width="0"/><path d="M150,32c60.75132,0,110,49.24868,110,110s-49.24868,110-110,110v-184.87502h-28.86015C121.13985,47.72599,134.06098,32,150,32Z" transform="matrix(0 1 1 0 0 0)" fill="#fff" stroke-width="0"/></g><path d="M-66.075188,33.924812c0-55.228475,44.771525-100,100-100s100,44.771525,100,100-44.771525,100-100,100-100-44.771525-100-100Z" transform="translate(116.075188 116.075188)" fill="#40ffff" stroke-width="0"/></svg>